<svg width="1000" height="940" viewBox="0 0 1000 940" fill="none" xmlns="http://www.w3.org/2000/svg">
<path d="M62.2383 898.242C315.981 692.845 678.71 698.154 932.173 898.242" stroke="#EBECFF" stroke-width="81.6" stroke-linecap="round"/>
<path d="M769.532 313.908V706.538C769.532 781.71 840.512 835.645 840.512 835.645M41 329.836L337.219 64.4739L499.86 249.913L662.781 64.4739L959 329.836M224.321 313.908V706.538C224.321 781.71 153.34 835.645 153.34 835.645" stroke="#EBECFF" stroke-width="81.6" stroke-linecap="round" stroke-linejoin="round"/>
<path d="M894.446 40.9438C894.415 18.4106 876.123 0.169002 853.59 0.20004C831.057 0.231077 812.815 18.523 812.847 41.0562L894.446 40.9438ZM853.926 243.882L894.726 243.826L894.446 40.9438L853.646 41L812.847 41.0562L813.126 243.938L853.926 243.882Z" fill="#EBECFF"/>
<path d="M560.936 528.364H432.701C430.896 528.364 429.35 527.214 428.975 525.449C424.512 504.432 401.364 376.901 496.731 376.901C592.091 376.901 569.103 504.414 564.663 525.444C564.29 527.212 562.743 528.364 560.936 528.364Z" stroke="#EBECFF" stroke-width="81.6"/>
</svg>
